<svg width="342" height="280" viewBox="0 0 342 280" fill="none" xmlns="http://www.w3.org/2000/svg">
<rect width="342" height="280" fill="#D9E2F5"/>
<path d="M21 175.554V176.455H10.3359V175.554H21ZM21 164.714V165.615L11.874 171.745H21V172.653H10.3359V171.745L19.4692 165.607H10.3359V164.714H21ZM19.6816 158.789L19.9087 158.73L19.6816 158.664L10.3359 155.31V154.321L21 158.291V159.155L10.3359 163.125V162.143L19.6816 158.789ZM15.8877 146.857V151.845H20.2383V146.11H21V152.746H10.3359V146.147H11.105V151.845H15.126V146.857H15.8877ZM18.3779 138.171C17.7871 138.171 17.3208 138.378 16.979 138.793C16.6323 139.208 16.3052 139.968 15.9976 141.071C15.6851 142.175 15.3457 142.98 14.9795 143.488C14.4619 144.211 13.7832 144.572 12.9434 144.572C12.1279 144.572 11.4663 144.238 10.9585 143.569C10.4458 142.895 10.1895 142.036 10.1895 140.991C10.1895 140.283 10.3262 139.65 10.5996 139.094C10.873 138.532 11.2539 138.098 11.7422 137.79C12.2305 137.482 12.7749 137.329 13.3755 137.329V138.237C12.6479 138.237 12.0645 138.486 11.625 138.984C11.1807 139.482 10.9585 140.151 10.9585 140.991C10.9585 141.806 11.1416 142.456 11.5078 142.939C11.8691 143.422 12.3428 143.664 12.9287 143.664C13.4707 143.664 13.9126 143.447 14.2544 143.012C14.5962 142.578 14.8989 141.882 15.1626 140.925C15.4214 139.968 15.6924 139.243 15.9756 138.75C16.2539 138.256 16.5884 137.885 16.979 137.636C17.3696 137.387 17.8311 137.263 18.3633 137.263C19.2031 137.263 19.877 137.6 20.3848 138.273C20.8926 138.942 21.1465 139.826 21.1465 140.925C21.1465 141.677 21.0122 142.368 20.7437 142.998C20.4751 143.623 20.0991 144.099 19.6157 144.426C19.1323 144.748 18.5781 144.909 17.9531 144.909V144.008C18.7051 144.008 19.2983 143.728 19.7329 143.166C20.1675 142.604 20.3848 141.857 20.3848 140.925C20.3848 140.095 20.2017 139.428 19.8354 138.925C19.4692 138.422 18.9834 138.171 18.3779 138.171ZM11.105 128.078V131.733H21V132.634H11.105V136.281H10.3359V128.078H11.105ZM10.3359 125.156L19.7476 121.223L10.3359 117.275V116.074H21V116.975H16.3564L11.5957 116.901L21 120.871V121.567L11.6323 125.522L16.3271 125.449H21V126.35H10.3359V125.156ZM15.8877 107.482V112.47H20.2383V106.735H21V113.371H10.3359V106.772H11.105V112.47H15.126V107.482H15.8877ZM21 96.8916V97.7925L11.874 103.923H21V104.831H10.3359V103.923L19.4692 97.7852H10.3359V96.8916H21ZM11.105 87.165V90.8198H21V91.7207H11.105V95.3682H10.3359V87.165H11.105ZM18.3779 79.5186C17.7871 79.5186 17.3208 79.7261 16.979 80.1411C16.6323 80.5562 16.3052 81.3154 15.9976 82.4189C15.6851 83.5225 15.3457 84.3281 14.9795 84.8359C14.4619 85.5586 13.7832 85.9199 12.9434 85.9199C12.1279 85.9199 11.4663 85.5854 10.9585 84.9165C10.4458 84.2427 10.1895 83.3833 10.1895 82.3384C10.1895 81.6304 10.3262 80.998 10.5996 80.4414C10.873 79.8799 11.2539 79.4453 11.7422 79.1377C12.2305 78.8301 12.7749 78.6763 13.3755 78.6763V79.5845C12.6479 79.5845 12.0645 79.8335 11.625 80.3315C11.1807 80.8296 10.9585 81.4985 10.9585 82.3384C10.9585 83.1538 11.1416 83.8032 11.5078 84.2866C11.8691 84.77 12.3428 85.0117 12.9287 85.0117C13.4707 85.0117 13.9126 84.7944 14.2544 84.3599C14.5962 83.9253 14.8989 83.2295 15.1626 82.2725C15.4214 81.3154 15.6924 80.5903 15.9756 80.0972C16.2539 79.604 16.5884 79.2329 16.979 78.9839C17.3696 78.7349 17.8311 78.6104 18.3633 78.6104C19.2031 78.6104 19.877 78.9473 20.3848 79.6211C20.8926 80.29 21.1465 81.1738 21.1465 82.2725C21.1465 83.0244 21.0122 83.7153 20.7437 84.3452C20.4751 84.9702 20.0991 85.4463 19.6157 85.7734C19.1323 86.0957 18.5781 86.2568 17.9531 86.2568V85.356C18.7051 85.356 19.2983 85.0752 19.7329 84.5137C20.1675 83.9521 20.3848 83.2051 20.3848 82.2725C20.3848 81.4424 20.2017 80.7759 19.8354 80.2729C19.4692 79.77 18.9834 79.5186 18.3779 79.5186ZM16.6934 73.3369C15.6289 73.3369 14.5962 73.2002 13.5952 72.9268C12.5894 72.6533 11.6714 72.2529 10.8413 71.7256C10.0063 71.1982 9.4082 70.6318 9.04687 70.0264L9.64014 69.814C9.86963 70.1362 10.2041 70.4561 10.6436 70.7734C11.083 71.0908 11.6055 71.374 12.2109 71.623C12.8164 71.8721 13.4976 72.0747 14.2544 72.231C15.0063 72.3823 15.8608 72.458 16.8179 72.458C17.8384 72.458 18.8198 72.3433 19.7622 72.1138C20.7046 71.8794 21.5347 71.5596 22.2524 71.1543C22.9751 70.749 23.5171 70.3022 23.8784 69.814L24.4424 70.0264C24.0713 70.6465 23.4707 71.2202 22.6406 71.7476C21.8154 72.2749 20.9072 72.6729 19.916 72.9414C18.9199 73.2051 17.8457 73.3369 16.6934 73.3369ZM18.3706 62.9731C17.8286 62.9731 17.3867 63.1489 17.0449 63.5005C16.6982 63.8521 16.3711 64.4722 16.0635 65.3608C15.7168 66.4644 15.3066 67.2383 14.833 67.6826C14.3545 68.127 13.7368 68.3491 12.98 68.3491C12.1841 68.3491 11.5396 68.105 11.0464 67.6167C10.5483 67.1284 10.2651 66.4644 10.1968 65.6245H8.71729V64.8774H10.1968C10.2749 64.0181 10.5972 63.354 11.1636 62.8853C11.73 62.4116 12.499 62.1748 13.4707 62.1748V63.0464C12.7041 63.0464 12.0962 63.2466 11.647 63.647C11.1929 64.0425 10.9658 64.5845 10.9658 65.2729C10.9658 65.9663 11.1489 66.5083 11.5151 66.8989C11.8765 67.2847 12.3599 67.4775 12.9653 67.4775C13.5513 67.4775 14.0103 67.2993 14.3423 66.9429C14.6694 66.5864 14.9795 65.981 15.2725 65.1265C15.5605 64.2671 15.8389 63.6445 16.1074 63.2588C16.3711 62.8682 16.686 62.5776 17.0522 62.3872C17.4136 62.1919 17.8481 62.0942 18.356 62.0942C19.1567 62.0942 19.8037 62.3457 20.2969 62.8486C20.7852 63.3467 21.0635 64.0327 21.1318 64.9067H22.5234V65.6465H21.1392C21.0757 66.6279 20.7681 67.3872 20.2163 67.9243C19.6597 68.4614 18.9004 68.73 17.9385 68.73V67.8511C18.7002 67.8511 19.2983 67.6289 19.7329 67.1846C20.1626 66.7402 20.3774 66.1201 20.3774 65.3242C20.3774 64.6309 20.1919 64.0669 19.8208 63.6323C19.4497 63.1929 18.9663 62.9731 18.3706 62.9731ZM16.8032 57.4873C17.8774 57.4873 18.9126 57.6216 19.9087 57.8901C20.8999 58.1538 21.8081 58.5469 22.6333 59.0693C23.4585 59.5918 24.0615 60.168 24.4424 60.7979L23.8784 61.0103C23.5366 60.5317 23.0068 60.0898 22.2891 59.6846C21.5713 59.2744 20.7363 58.9521 19.7842 58.7178C18.8271 58.4834 17.7896 58.3662 16.6714 58.3662C15.6606 58.3662 14.6865 58.4834 13.749 58.7178C12.8066 58.9521 11.9668 59.2769 11.2295 59.6919C10.4873 60.1021 9.94775 60.5415 9.61084 61.0103L9.04687 60.7979C9.42285 60.1826 10.0234 59.6138 10.8486 59.0913C11.6738 58.5688 12.5894 58.1709 13.5952 57.8975C14.6011 57.624 15.6704 57.4873 16.8032 57.4873Z" fill="black"/>
<path d="M153.348 232V221.336H156.329C157.203 221.336 157.986 221.536 158.68 221.937C159.373 222.332 159.913 222.901 160.298 223.643C160.689 224.385 160.884 225.23 160.884 226.177V227.159C160.884 228.111 160.691 228.956 160.306 229.693C159.92 230.43 159.375 230.999 158.672 231.399C157.974 231.8 157.171 232 156.263 232H153.348ZM154.249 222.105V231.238H156.27C157.393 231.238 158.294 230.867 158.973 230.125C159.651 229.378 159.991 228.37 159.991 227.1V226.163C159.991 224.937 159.656 223.956 158.987 223.218C158.318 222.481 157.437 222.11 156.343 222.105H154.249ZM168.772 229.012H163.931L162.833 232H161.888L165.923 221.336H166.78L170.816 232H169.878L168.772 229.012ZM164.209 228.243H168.487L166.348 222.435L164.209 228.243ZM174.83 227.151L178.089 221.336H179.129L175.276 227.986V232H174.375V227.986L170.53 221.336H171.6L174.83 227.151ZM186.6 229.378C186.6 228.787 186.392 228.321 185.977 227.979C185.562 227.632 184.803 227.305 183.699 226.998C182.596 226.685 181.79 226.346 181.282 225.979C180.56 225.462 180.198 224.783 180.198 223.943C180.198 223.128 180.533 222.466 181.202 221.958C181.875 221.446 182.735 221.189 183.78 221.189C184.488 221.189 185.12 221.326 185.677 221.6C186.238 221.873 186.673 222.254 186.98 222.742C187.288 223.23 187.442 223.775 187.442 224.375H186.534C186.534 223.648 186.285 223.064 185.787 222.625C185.289 222.181 184.62 221.958 183.78 221.958C182.964 221.958 182.315 222.142 181.832 222.508C181.348 222.869 181.106 223.343 181.106 223.929C181.106 224.471 181.324 224.913 181.758 225.254C182.193 225.596 182.889 225.899 183.846 226.163C184.803 226.421 185.528 226.692 186.021 226.976C186.514 227.254 186.885 227.588 187.134 227.979C187.383 228.37 187.508 228.831 187.508 229.363C187.508 230.203 187.171 230.877 186.497 231.385C185.828 231.893 184.944 232.146 183.846 232.146C183.094 232.146 182.403 232.012 181.773 231.744C181.148 231.475 180.672 231.099 180.345 230.616C180.022 230.132 179.861 229.578 179.861 228.953H180.762C180.762 229.705 181.043 230.298 181.604 230.733C182.166 231.167 182.913 231.385 183.846 231.385C184.676 231.385 185.342 231.202 185.845 230.835C186.348 230.469 186.6 229.983 186.6 229.378Z" fill="black"/>
<path d="M33 193L52.8162 129.031L75.4632 144.328L80.7206 167.969H86.3824L111.456 144.328H119.14L123.588 148.964L154.324 129.031H170.5L187.89 111.417L205.684 129.031L215.39 117.906H224.287L237.228 129.031L266.75 104L284.14 111.417L308 104" stroke="black"/>
<path fill-rule="evenodd" clip-rule="evenodd" d="M115.956 158H119.944V157H115.956V158ZM36.9883 158H33V157H36.9883V158ZM39.3812 158H43.3695V157H39.3812V158ZM49.7507 158H45.7625V157H49.7507V158ZM64.9061 158H68.8944V157H64.9061V158ZM56.1319 158H52.1437V157H56.1319V158ZM58.5249 158H62.5132V157H58.5249V158ZM75.2756 158H71.2874V157H75.2756V158ZM77.6686 158H81.6568V157H77.6686V158ZM88.0381 158H84.0498V157H88.0381V158ZM90.4312 158H94.4194V157H90.4312V158ZM113.563 158H109.575V157H113.563V158ZM96.8123 158H100.801V157H96.8123V158ZM107.182 158H103.193V157H107.182V158ZM122.337 158H126.325V157H122.337V158ZM132.707 158H128.719V157H132.707V158ZM135.1 158H139.088V157H135.1V158ZM145.469 158H141.481V157H145.469V158ZM147.862 158H151.85V157H147.862V158ZM158.232 158H154.243V157H158.232V158ZM160.625 158H164.613V157H160.625V158ZM170.994 158H167.006V157H170.994V158ZM173.387 158H177.375V157H173.387V158ZM209.281 158H205.293V157H209.281V158ZM179.768 158H183.757V157H179.768V158ZM202.9 158H198.912V157H202.9V158ZM186.15 158H190.138V157H186.15V158ZM196.519 158H192.531V157H196.519V158ZM211.674 158H215.663V157H211.674V158ZM222.044 158H218.056V157H222.044V158ZM224.437 158H228.425V157H224.437V158ZM234.807 158H230.818V157H234.807V158ZM237.199 158H241.188V157H237.199V158ZM247.569 158H243.581V157H247.569V158ZM249.962 158H253.95V157H249.962V158ZM260.331 158H256.343V157H260.331V158ZM262.724 158H266.713V157H262.724V158ZM298.619 158H294.63V157H298.619V158ZM269.105 158H273.094V157H269.105V158ZM292.238 158H288.249V157H292.238V158ZM275.487 158H279.475V157H275.487V158ZM285.856 158H281.868V157H285.856V158ZM301.012 158H305V157H301.012V158Z" fill="#414141"/>
<path d="M32 19V214H307" stroke="black"/>
<path d="M124.539 41.5068C124.539 40.6084 124.222 39.8516 123.587 39.2363C122.962 38.6211 121.902 38.0645 120.408 37.5664C118.328 36.9316 116.81 36.1064 115.853 35.0908C114.905 34.0654 114.432 32.7666 114.432 31.1943C114.432 29.5928 114.896 28.2793 115.823 27.2539C116.761 26.2285 118.045 25.6182 119.676 25.4229V22.2148H121.858V25.4375C123.499 25.6621 124.773 26.3506 125.682 27.5029C126.6 28.6553 127.059 30.2324 127.059 32.2344H124.363C124.363 30.8574 124.036 29.7637 123.382 28.9531C122.728 28.1426 121.844 27.7373 120.73 27.7373C119.568 27.7373 118.68 28.04 118.064 28.6455C117.449 29.2412 117.142 30.0762 117.142 31.1504C117.142 32.1465 117.464 32.9424 118.108 33.5381C118.763 34.124 119.832 34.6611 121.316 35.1494C122.811 35.6279 123.973 36.1602 124.803 36.7461C125.643 37.3223 126.258 37.9961 126.648 38.7676C127.049 39.5391 127.249 40.4424 127.249 41.4775C127.249 43.1279 126.751 44.4561 125.755 45.4619C124.769 46.4678 123.382 47.0635 121.595 47.249V50.0469H119.427V47.249C117.61 47.083 116.185 46.4385 115.149 45.3154C114.124 44.1826 113.611 42.6494 113.611 40.7158H116.321C116.321 42.0732 116.678 43.1182 117.391 43.8506C118.104 44.583 119.114 44.9492 120.423 44.9492C121.702 44.9492 122.708 44.6416 123.44 44.0264C124.173 43.4111 124.539 42.5713 124.539 41.5068ZM149.427 11.1846V13.748H149.085C144.837 13.748 141.492 15.0013 139.051 17.5078C136.609 19.998 135.258 23.4648 134.998 27.9082C135.975 26.5573 137.22 25.5156 138.733 24.7832C140.247 24.0345 141.94 23.6602 143.812 23.6602C146.937 23.6602 149.419 24.7425 151.258 26.9072C153.113 29.0557 154.041 31.8714 154.041 35.3545C154.041 37.6657 153.61 39.749 152.747 41.6045C151.884 43.46 150.647 44.9085 149.036 45.9502C147.425 46.9756 145.586 47.4883 143.519 47.4883C140.117 47.4883 137.35 46.2594 135.218 43.8018C133.086 41.3278 132.02 38.1377 132.02 34.2314V31.3018C132.02 24.9378 133.468 20.0143 136.365 16.5312C139.262 13.0319 143.372 11.2497 148.694 11.1846H149.427ZM143.348 26.1748C141.492 26.1748 139.759 26.7282 138.147 27.835C136.552 28.9255 135.486 30.3171 134.949 32.0098V34.5C134.949 37.5924 135.739 40.1152 137.317 42.0684C138.912 44.0215 140.979 44.998 143.519 44.998C145.797 44.998 147.636 44.0947 149.036 42.2881C150.452 40.4814 151.16 38.2028 151.16 35.4521C151.16 32.6527 150.452 30.4066 149.036 28.7139C147.636 27.0212 145.74 26.1748 143.348 26.1748ZM181.36 32.1807C181.36 37.1937 180.441 41.0023 178.602 43.6064C176.762 46.1943 174.052 47.4883 170.472 47.4883C166.956 47.4883 164.262 46.2188 162.391 43.6797C160.519 41.1243 159.559 37.4134 159.51 32.5469V26.1748C159.51 21.1781 160.438 17.3939 162.293 14.8223C164.148 12.2507 166.858 10.9648 170.423 10.9648C173.938 10.9648 176.624 12.21 178.479 14.7002C180.335 17.1742 181.295 20.8281 181.36 25.6621V32.1807ZM178.431 25.8086C178.431 21.7396 177.763 18.6634 176.429 16.5801C175.11 14.4967 173.108 13.4551 170.423 13.4551C167.786 13.4551 165.8 14.4723 164.466 16.5068C163.131 18.5413 162.448 21.5443 162.415 25.5156V32.498C162.415 36.5508 163.099 39.6514 164.466 41.7998C165.849 43.9482 167.851 45.0225 170.472 45.0225C173.076 45.0225 175.045 43.9727 176.38 41.873C177.731 39.7734 178.414 36.6973 178.431 32.6445V25.8086ZM186.424 45.5791C186.424 45.1104 186.561 44.7197 186.834 44.4072C187.117 44.0947 187.537 43.9385 188.094 43.9385C188.65 43.9385 189.07 44.0947 189.354 44.4072C189.646 44.7197 189.793 45.1104 189.793 45.5791C189.793 46.0283 189.646 46.4043 189.354 46.707C189.07 47.0098 188.65 47.1611 188.094 47.1611C187.537 47.1611 187.117 47.0098 186.834 46.707C186.561 46.4043 186.424 46.0283 186.424 45.5791ZM204.383 37.625C203.816 38.2988 203.138 38.8408 202.347 39.251C201.565 39.6611 200.706 39.8662 199.769 39.8662C198.538 39.8662 197.464 39.5635 196.546 38.958C195.638 38.3525 194.935 37.5029 194.437 36.4092C193.938 35.3057 193.689 34.0898 193.689 32.7617C193.689 31.3359 193.958 30.0518 194.495 28.9092C195.042 27.7666 195.813 26.8926 196.81 26.2871C197.806 25.6816 198.968 25.3789 200.296 25.3789C202.405 25.3789 204.065 26.1699 205.276 27.752C206.497 29.3242 207.107 31.4727 207.107 34.1973V34.9883C207.107 39.1387 206.287 42.1709 204.646 44.085C203.006 45.9893 200.53 46.9658 197.22 47.0146H196.692V44.7295H197.264C199.5 44.6904 201.219 44.1094 202.42 42.9863C203.621 41.8535 204.275 40.0664 204.383 37.625ZM200.208 37.625C201.116 37.625 201.951 37.3467 202.713 36.79C203.484 36.2334 204.046 35.5449 204.397 34.7246V33.6406C204.397 31.8633 204.012 30.418 203.24 29.3047C202.469 28.1914 201.492 27.6348 200.311 27.6348C199.119 27.6348 198.162 28.0938 197.439 29.0117C196.717 29.9199 196.355 31.1211 196.355 32.6152C196.355 34.0703 196.702 35.2715 197.396 36.2188C198.099 37.1562 199.036 37.625 200.208 37.625ZM221.478 25.6572V27.957H220.979C218.87 27.9961 217.19 28.6211 215.94 29.832C214.69 31.043 213.968 32.7471 213.772 34.9443C214.896 33.6553 216.429 33.0107 218.372 33.0107C220.228 33.0107 221.707 33.665 222.811 34.9736C223.924 36.2822 224.48 37.9717 224.48 40.042C224.48 42.2393 223.88 43.9971 222.679 45.3154C221.487 46.6338 219.886 47.293 217.874 47.293C215.833 47.293 214.178 46.5117 212.908 44.9492C211.639 43.377 211.004 41.3555 211.004 38.8848V37.8447C211.004 33.9189 211.839 30.9209 213.509 28.8506C215.188 26.7705 217.684 25.7061 220.994 25.6572H221.478ZM217.918 35.2666C216.99 35.2666 216.136 35.5449 215.354 36.1016C214.573 36.6582 214.031 37.3564 213.729 38.1963V39.1924C213.729 40.9502 214.124 42.3662 214.915 43.4404C215.706 44.5146 216.692 45.0518 217.874 45.0518C219.095 45.0518 220.052 44.6025 220.745 43.7041C221.448 42.8057 221.8 41.6289 221.8 40.1738C221.8 38.709 221.443 37.5273 220.73 36.6289C220.027 35.7207 219.09 35.2666 217.918 35.2666Z" fill="black"/>
<path d="M104.614 67.5801H107.859V68.4004H104.614V71.9307H103.728V68.4004H100.549V67.5801H103.728V64.167H104.614V67.5801ZM116.15 73H109.47V72.3262L113.125 68.1807C113.73 67.4824 114.15 66.9062 114.385 66.4521C114.619 65.998 114.736 65.5562 114.736 65.1265C114.736 64.4526 114.539 63.9204 114.143 63.5298C113.748 63.1343 113.203 62.9365 112.51 62.9365C111.792 62.9365 111.211 63.166 110.767 63.625C110.327 64.084 110.107 64.6797 110.107 65.4121H109.236C109.236 64.8115 109.37 64.2646 109.639 63.7715C109.912 63.2783 110.298 62.8926 110.796 62.6143C111.299 62.3311 111.87 62.1895 112.51 62.1895C113.486 62.1895 114.248 62.4458 114.795 62.9585C115.347 63.4712 115.623 64.1694 115.623 65.0532C115.623 65.5513 115.466 66.0957 115.154 66.6865C114.846 67.2773 114.302 68.0146 113.521 68.8984L110.547 72.2603H116.15V73ZM117.849 72.4727C117.849 72.3018 117.903 72.1577 118.01 72.0405C118.123 71.9185 118.276 71.8574 118.472 71.8574C118.667 71.8574 118.821 71.9185 118.933 72.0405C119.045 72.1577 119.102 72.3018 119.102 72.4727C119.102 72.6436 119.045 72.7852 118.933 72.8975C118.821 73.0049 118.667 73.0586 118.472 73.0586C118.276 73.0586 118.123 73.0049 118.01 72.8975C117.903 72.7852 117.849 72.6436 117.849 72.4727ZM127.81 68.5542C127.81 70.0581 127.534 71.2007 126.982 71.9819C126.431 72.7583 125.618 73.1465 124.543 73.1465C123.489 73.1465 122.681 72.7656 122.119 72.0039C121.558 71.2373 121.27 70.124 121.255 68.6641V66.7524C121.255 65.2534 121.533 64.1182 122.09 63.3467C122.646 62.5752 123.459 62.1895 124.529 62.1895C125.583 62.1895 126.389 62.563 126.946 63.3101C127.502 64.0522 127.791 65.1484 127.81 66.5986V68.5542ZM126.931 66.6426C126.931 65.4219 126.731 64.499 126.331 63.874C125.935 63.249 125.334 62.9365 124.529 62.9365C123.738 62.9365 123.142 63.2417 122.742 63.8521C122.341 64.4624 122.136 65.3633 122.126 66.5547V68.6494C122.126 69.8652 122.332 70.7954 122.742 71.4399C123.157 72.0845 123.757 72.4067 124.543 72.4067C125.325 72.4067 125.916 72.0918 126.316 71.4619C126.721 70.832 126.926 69.9092 126.931 68.6934V66.6426ZM135.984 65.0825C135.984 65.6343 135.823 66.1299 135.5 66.5693C135.178 67.0039 134.753 67.3237 134.226 67.5288C134.841 67.7388 135.334 68.0781 135.706 68.5469C136.077 69.0156 136.262 69.5576 136.262 70.1729C136.262 71.0859 135.952 71.811 135.332 72.3481C134.712 72.8804 133.892 73.1465 132.871 73.1465C131.841 73.1465 131.016 72.8804 130.396 72.3481C129.78 71.8159 129.473 71.0908 129.473 70.1729C129.473 69.5674 129.651 69.0278 130.007 68.5542C130.364 68.0806 130.852 67.7388 131.472 67.5288C130.945 67.3237 130.525 67.0039 130.212 66.5693C129.9 66.1299 129.744 65.6343 129.744 65.0825C129.744 64.1987 130.027 63.4956 130.593 62.9731C131.165 62.4507 131.919 62.1895 132.856 62.1895C133.794 62.1895 134.548 62.4531 135.12 62.9805C135.696 63.5078 135.984 64.2085 135.984 65.0825ZM135.383 70.1802C135.383 69.5161 135.146 68.9717 134.673 68.5469C134.199 68.1172 133.594 67.9023 132.856 67.9023C132.119 67.9023 131.516 68.1123 131.047 68.5322C130.579 68.9521 130.344 69.5015 130.344 70.1802C130.344 70.8589 130.571 71.4009 131.025 71.8062C131.479 72.2065 132.095 72.4067 132.871 72.4067C133.628 72.4067 134.236 72.2065 134.695 71.8062C135.154 71.4058 135.383 70.8638 135.383 70.1802ZM135.105 65.0752C135.105 64.4648 134.893 63.957 134.468 63.5518C134.048 63.1416 133.511 62.9365 132.856 62.9365C132.192 62.9365 131.653 63.1343 131.238 63.5298C130.828 63.9204 130.623 64.4355 130.623 65.0752C130.623 65.7002 130.828 66.2031 131.238 66.584C131.653 66.9648 132.195 67.1553 132.864 67.1553C133.523 67.1553 134.06 66.9648 134.475 66.584C134.895 66.1982 135.105 65.6953 135.105 65.0752ZM141.689 68.6934C141.689 67.6289 141.826 66.5962 142.1 65.5952C142.373 64.5894 142.773 63.6714 143.301 62.8413C143.828 62.0063 144.395 61.4082 145 61.0469L145.212 61.6401C144.89 61.8696 144.57 62.2041 144.253 62.6436C143.936 63.083 143.652 63.6055 143.403 64.2109C143.154 64.8164 142.952 65.4976 142.795 66.2544C142.644 67.0063 142.568 67.8608 142.568 68.8179C142.568 69.8384 142.683 70.8198 142.913 71.7622C143.147 72.7046 143.467 73.5347 143.872 74.2524C144.277 74.9751 144.724 75.5171 145.212 75.8784L145 76.4424C144.38 76.0713 143.806 75.4707 143.279 74.6406C142.751 73.8154 142.354 72.9072 142.085 71.916C141.821 70.9199 141.689 69.8457 141.689 68.6934ZM148.406 67.1919H149.314C149.817 67.1919 150.256 67.104 150.632 66.9282C151.008 66.7476 151.294 66.5034 151.489 66.1958C151.689 65.8833 151.79 65.5244 151.79 65.1191C151.79 64.4355 151.597 63.9009 151.211 63.5151C150.825 63.1294 150.271 62.9365 149.548 62.9365C148.865 62.9365 148.303 63.1392 147.864 63.5444C147.429 63.9448 147.212 64.4746 147.212 65.1338H146.333C146.333 64.582 146.472 64.0791 146.75 63.625C147.029 63.166 147.415 62.812 147.908 62.563C148.401 62.314 148.948 62.1895 149.548 62.1895C150.515 62.1895 151.277 62.4531 151.833 62.9805C152.39 63.5078 152.668 64.2305 152.668 65.1484C152.668 65.6611 152.505 66.1348 152.178 66.5693C151.855 66.999 151.411 67.3213 150.845 67.5361C151.509 67.7217 152.012 68.0415 152.354 68.4956C152.695 68.9448 152.866 69.4819 152.866 70.1069C152.866 71.02 152.568 71.7549 151.973 72.3115C151.377 72.8682 150.581 73.1465 149.585 73.1465C148.95 73.1465 148.367 73.0195 147.834 72.7656C147.307 72.5117 146.897 72.1577 146.604 71.7036C146.316 71.2446 146.172 70.7124 146.172 70.1069H147.051C147.051 70.7856 147.288 71.3398 147.761 71.7695C148.235 72.1943 148.843 72.4067 149.585 72.4067C150.342 72.4067 150.93 72.2139 151.35 71.8281C151.775 71.4375 151.987 70.8735 151.987 70.1362C151.987 69.4233 151.758 68.8789 151.299 68.5029C150.845 68.127 150.173 67.939 149.285 67.939H148.406V67.1919ZM154.836 72.4727C154.836 72.3018 154.89 72.1577 154.998 72.0405C155.11 71.9185 155.264 71.8574 155.459 71.8574C155.654 71.8574 155.808 71.9185 155.92 72.0405C156.033 72.1577 156.089 72.3018 156.089 72.4727C156.089 72.6436 156.033 72.7852 155.92 72.8975C155.808 73.0049 155.654 73.0586 155.459 73.0586C155.264 73.0586 155.11 73.0049 154.998 72.8975C154.89 72.7852 154.836 72.6436 154.836 72.4727ZM158.96 67.5361L159.48 62.3359H164.812V63.1489H160.234L159.861 66.7524C160.432 66.3618 161.101 66.1665 161.868 66.1665C162.83 66.1665 163.596 66.479 164.167 67.104C164.739 67.729 165.024 68.5615 165.024 69.6016C165.024 70.7246 164.746 71.5962 164.189 72.2163C163.633 72.8364 162.849 73.1465 161.838 73.1465C160.911 73.1465 160.159 72.8877 159.583 72.3701C159.006 71.8525 158.677 71.1274 158.594 70.1948H159.436C159.519 70.9224 159.766 71.4741 160.176 71.8501C160.586 72.2212 161.14 72.4067 161.838 72.4067C162.6 72.4067 163.174 72.165 163.56 71.6816C163.95 71.1982 164.146 70.5098 164.146 69.6162C164.146 68.835 163.928 68.1978 163.494 67.7046C163.059 67.2114 162.466 66.9648 161.714 66.9648C161.299 66.9648 160.938 67.0186 160.63 67.126C160.322 67.2285 159.998 67.4312 159.656 67.7339L158.96 67.5361ZM168.635 67.1919H169.543C170.046 67.1919 170.486 67.104 170.862 66.9282C171.238 66.7476 171.523 66.5034 171.719 66.1958C171.919 65.8833 172.019 65.5244 172.019 65.1191C172.019 64.4355 171.826 63.9009 171.44 63.5151C171.055 63.1294 170.5 62.9365 169.778 62.9365C169.094 62.9365 168.533 63.1392 168.093 63.5444C167.659 63.9448 167.441 64.4746 167.441 65.1338H166.562C166.562 64.582 166.702 64.0791 166.98 63.625C167.258 63.166 167.644 62.812 168.137 62.563C168.63 62.314 169.177 62.1895 169.778 62.1895C170.745 62.1895 171.506 62.4531 172.063 62.9805C172.62 63.5078 172.898 64.2305 172.898 65.1484C172.898 65.6611 172.734 66.1348 172.407 66.5693C172.085 66.999 171.641 67.3213 171.074 67.5361C171.738 67.7217 172.241 68.0415 172.583 68.4956C172.925 68.9448 173.096 69.4819 173.096 70.1069C173.096 71.02 172.798 71.7549 172.202 72.3115C171.606 72.8682 170.811 73.1465 169.814 73.1465C169.18 73.1465 168.596 73.0195 168.064 72.7656C167.537 72.5117 167.126 72.1577 166.833 71.7036C166.545 71.2446 166.401 70.7124 166.401 70.1069H167.28C167.28 70.7856 167.517 71.3398 167.991 71.7695C168.464 72.1943 169.072 72.4067 169.814 72.4067C170.571 72.4067 171.16 72.2139 171.58 71.8281C172.004 71.4375 172.217 70.8735 172.217 70.1362C172.217 69.4233 171.987 68.8789 171.528 68.5029C171.074 68.127 170.403 67.939 169.514 67.939H168.635V67.1919ZM174.802 64.3867C174.802 63.752 174.998 63.2271 175.388 62.812C175.784 62.3921 176.284 62.1821 176.89 62.1821C177.495 62.1821 177.993 62.3921 178.384 62.812C178.779 63.2271 178.977 63.7666 178.977 64.4307V64.9507C178.977 65.5757 178.782 66.0981 178.391 66.5181C178.005 66.9331 177.51 67.1406 176.904 67.1406C176.304 67.1406 175.803 66.9355 175.403 66.5254C175.002 66.1152 174.802 65.5732 174.802 64.8994V64.3867ZM175.513 64.9507C175.513 65.4048 175.637 65.7783 175.886 66.0713C176.14 66.3643 176.479 66.5107 176.904 66.5107C177.319 66.5107 177.649 66.3643 177.893 66.0713C178.142 65.7734 178.267 65.3901 178.267 64.9214V64.3867C178.267 63.9326 178.14 63.5591 177.886 63.2661C177.632 62.9683 177.3 62.8193 176.89 62.8193C176.484 62.8193 176.152 62.9658 175.894 63.2588C175.64 63.5518 175.513 63.9424 175.513 64.4307V64.9507ZM180.171 70.3853C180.171 69.7505 180.366 69.2256 180.757 68.8105C181.152 68.3955 181.65 68.188 182.251 68.188C182.852 68.188 183.35 68.3955 183.745 68.8105C184.146 69.2207 184.346 69.7627 184.346 70.4365V70.9565C184.346 71.5913 184.148 72.1162 183.752 72.5312C183.362 72.9463 182.866 73.1538 182.266 73.1538C181.665 73.1538 181.165 72.9487 180.764 72.5386C180.369 72.1235 180.171 71.584 180.171 70.9199V70.3853ZM180.874 70.9565C180.874 71.4155 180.999 71.7915 181.248 72.0845C181.501 72.3774 181.841 72.5239 182.266 72.5239C182.686 72.5239 183.018 72.3774 183.262 72.0845C183.511 71.7866 183.635 71.3984 183.635 70.9199V70.3853C183.635 69.9165 183.508 69.5405 183.254 69.2573C183.005 68.9692 182.671 68.8252 182.251 68.8252C181.841 68.8252 181.509 68.9692 181.255 69.2573C181.001 69.5454 180.874 69.9312 180.874 70.4146V70.9565ZM177.183 72.1138L176.633 71.7622L181.841 63.4272L182.39 63.7788L177.183 72.1138ZM188.857 68.8032C188.857 69.8774 188.723 70.9126 188.455 71.9087C188.191 72.8999 187.798 73.8081 187.275 74.6333C186.753 75.4585 186.177 76.0615 185.547 76.4424L185.334 75.8784C185.813 75.5366 186.255 75.0068 186.66 74.2891C187.07 73.5713 187.393 72.7363 187.627 71.7842C187.861 70.8271 187.979 69.7896 187.979 68.6714C187.979 67.6606 187.861 66.6865 187.627 65.749C187.393 64.8066 187.068 63.9668 186.653 63.2295C186.243 62.4873 185.803 61.9478 185.334 61.6108L185.547 61.0469C186.162 61.4229 186.731 62.0234 187.253 62.8486C187.776 63.6738 188.174 64.5894 188.447 65.5952C188.721 66.6011 188.857 67.6704 188.857 68.8032ZM201.924 63.105H198.269V73H197.368V63.105H193.721V62.3359H201.924V63.105ZM211.328 68.2466C211.328 69.228 211.157 70.0898 210.815 70.832C210.479 71.5742 209.995 72.1455 209.365 72.5459C208.735 72.9463 208.008 73.1465 207.183 73.1465C205.938 73.1465 204.932 72.7021 204.165 71.8135C203.398 70.9199 203.015 69.7163 203.015 68.2026V67.104C203.015 66.1323 203.186 65.2729 203.528 64.5259C203.875 63.7739 204.363 63.1978 204.993 62.7974C205.623 62.3921 206.348 62.1895 207.168 62.1895C207.988 62.1895 208.711 62.3872 209.336 62.7827C209.966 63.1782 210.452 63.7373 210.793 64.46C211.135 65.1826 211.313 66.02 211.328 66.9722V68.2466ZM210.427 67.0894C210.427 65.8052 210.137 64.7993 209.556 64.0718C208.975 63.3442 208.179 62.9805 207.168 62.9805C206.177 62.9805 205.386 63.3467 204.795 64.0791C204.209 64.8066 203.916 65.8247 203.916 67.1333V68.2466C203.916 69.5112 204.209 70.5146 204.795 71.2568C205.381 71.9941 206.177 72.3628 207.183 72.3628C208.203 72.3628 208.999 71.999 209.57 71.2715C210.142 70.5391 210.427 69.521 210.427 68.2173V67.0894ZM213.599 73V62.3359H216.58C217.454 62.3359 218.237 62.5361 218.931 62.9365C219.624 63.332 220.164 63.9009 220.549 64.6431C220.94 65.3853 221.135 66.23 221.135 67.1772V68.1587C221.135 69.1108 220.942 69.9556 220.557 70.6929C220.171 71.4302 219.626 71.999 218.923 72.3994C218.225 72.7998 217.422 73 216.514 73H213.599ZM214.5 63.105V72.2383H216.521C217.644 72.2383 218.545 71.8672 219.224 71.125C219.902 70.3779 220.242 69.3696 220.242 68.1001V67.1626C220.242 65.937 219.907 64.9556 219.238 64.2183C218.569 63.481 217.688 63.1099 216.594 63.105H214.5ZM229.023 70.0117H224.182L223.083 73H222.139L226.174 62.3359H227.031L231.067 73H230.129L229.023 70.0117ZM224.46 69.2427H228.738L226.599 63.4346L224.46 69.2427ZM235.081 68.1514L238.34 62.3359H239.38L235.527 68.9863V73H234.626V68.9863L230.781 62.3359H231.851L235.081 68.1514Z" fill="black"/>
<rect x="33" y="242" width="29" height="21" fill="#848484"/>
<path d="M43.3394 258H41.9771V248.969L39.2451 249.973V248.742L43.127 247.285H43.3394V258ZM47.6606 258V247.336H50.6709C51.5986 247.336 52.4189 247.541 53.1318 247.951C53.8447 248.361 54.394 248.945 54.7798 249.702C55.1704 250.458 55.3682 251.328 55.373 252.309V252.99C55.373 253.996 55.1777 254.877 54.7871 255.634C54.4014 256.391 53.8472 256.972 53.1245 257.377C52.4067 257.783 51.5693 257.99 50.6123 258H47.6606ZM49.0669 248.493V256.85H50.5464C51.6304 256.85 52.4727 256.513 53.0732 255.839C53.6787 255.166 53.9814 254.206 53.9814 252.961V252.338C53.9814 251.127 53.6958 250.188 53.1245 249.519C52.5581 248.845 51.7524 248.503 50.7075 248.493H49.0669Z" fill="black"/>
<path d="M138.339 258H136.977V248.969L134.245 249.973V248.742L138.127 247.285H138.339V258ZM144.477 247.336L147.963 256.037L151.45 247.336H153.273V258H151.867V253.847L151.999 249.365L148.498 258H147.421L143.928 249.387L144.067 253.847V258H142.661V247.336H144.477Z" fill="black"/>
<path d="M184.856 252.009H185.875C186.514 251.999 187.017 251.831 187.383 251.503C187.75 251.176 187.933 250.734 187.933 250.178C187.933 248.928 187.31 248.303 186.065 248.303C185.479 248.303 185.01 248.471 184.659 248.808C184.312 249.14 184.139 249.582 184.139 250.134H182.784C182.784 249.289 183.091 248.588 183.707 248.032C184.327 247.47 185.113 247.189 186.065 247.189C187.071 247.189 187.859 247.456 188.431 247.988C189.002 248.52 189.288 249.26 189.288 250.207C189.288 250.671 189.136 251.12 188.833 251.555C188.536 251.989 188.128 252.314 187.61 252.529C188.196 252.714 188.648 253.022 188.965 253.452C189.288 253.881 189.449 254.406 189.449 255.026C189.449 255.983 189.136 256.743 188.511 257.304C187.886 257.866 187.073 258.146 186.072 258.146C185.071 258.146 184.256 257.875 183.626 257.333C183.001 256.792 182.688 256.076 182.688 255.188H184.051C184.051 255.749 184.234 256.198 184.6 256.535C184.966 256.872 185.457 257.041 186.072 257.041C186.727 257.041 187.227 256.87 187.574 256.528C187.92 256.186 188.094 255.695 188.094 255.056C188.094 254.436 187.903 253.959 187.522 253.627C187.142 253.295 186.592 253.125 185.875 253.115H184.856V252.009ZM193.477 247.336L196.963 256.037L200.45 247.336H202.273V258H200.867V253.847L200.999 249.365L197.498 258H196.421L192.928 249.387L193.067 253.847V258H191.661V247.336H193.477Z" fill="black"/>
<path d="M89.3394 258H87.9771V248.969L85.2451 249.973V248.742L89.127 247.285H89.3394V258ZM95.9604 254.638L96.1655 256.044L96.4658 254.777L98.5752 247.336H99.7617L101.82 254.777L102.113 256.066L102.34 254.631L103.995 247.336H105.409L102.823 258H101.542L99.3442 250.229L99.1758 249.416L99.0073 250.229L96.7295 258H95.4478L92.8696 247.336H94.2759L95.9604 254.638Z" fill="black"/>
<path d="M236.339 258H234.977V248.969L232.245 249.973V248.742L236.127 247.285H236.339V258ZM243.913 252.69L246.696 247.336H248.292L244.616 254.023V258H243.209V254.023L239.533 247.336H241.144L243.913 252.69Z" fill="black"/>
<path d="M283.126 255.217H278.659L277.655 258H276.205L280.277 247.336H281.508L285.587 258H284.145L283.126 255.217ZM279.083 254.06H282.709L280.893 249.072L279.083 254.06ZM288.437 256.85H293.49V258H287.023V247.336H288.437V256.85ZM296.508 256.85H301.562V258H295.094V247.336H296.508V256.85Z" fill="black"/>
</svg>
