<svg width="345" height="291" viewBox="0 0 345 291" fill="none" xmlns="http://www.w3.org/2000/svg">
<rect width="342" height="286.196" transform="matrix(0.999964 0.00843999 -0.00846413 0.999964 2.42242 0)" fill="#D9E2F5"/>
<path d="M35.233 203.486L55.0492 139.816L77.6963 155.041L82.9536 178.571H88.6154L113.689 155.041H121.373L125.821 159.655L156.557 139.816H172.733L190.123 122.283L207.917 139.816L217.623 128.743H226.52L239.461 139.816L268.983 114.901L286.373 122.283L310.233 114.901" stroke="black"/>
<path d="M34.233 30.2982V224.388H309.233" stroke="black"/>
<path d="M24.0559 198.554V199.455H13.3918V198.554H24.0559ZM24.0559 187.714V188.615L14.9299 194.745H24.0559V195.653H13.3918V194.745L22.5251 188.607H13.3918V187.714H24.0559ZM22.7375 181.789L22.9646 181.73L22.7375 181.664L13.3918 178.31V177.321L24.0559 181.291V182.155L13.3918 186.125V185.143L22.7375 181.789ZM18.9436 169.857V174.845H23.2942V169.11H24.0559V175.746H13.3918V169.147H14.1609V174.845H18.1819V169.857H18.9436ZM21.4338 161.171C20.843 161.171 20.3767 161.378 20.0349 161.793C19.6882 162.208 19.3611 162.968 19.0535 164.071C18.741 165.175 18.4016 165.98 18.0354 166.488C17.5178 167.211 16.8391 167.572 15.9993 167.572C15.1838 167.572 14.5222 167.238 14.0144 166.569C13.5017 165.895 13.2454 165.036 13.2454 163.991C13.2454 163.283 13.3821 162.65 13.6555 162.094C13.929 161.532 14.3098 161.098 14.7981 160.79C15.2864 160.482 15.8308 160.329 16.4314 160.329V161.237C15.7039 161.237 15.1204 161.486 14.6809 161.984C14.2366 162.482 14.0144 163.151 14.0144 163.991C14.0144 164.806 14.1975 165.456 14.5637 165.939C14.925 166.422 15.3987 166.664 15.9846 166.664C16.5266 166.664 16.9685 166.447 17.3103 166.012C17.6521 165.578 17.9548 164.882 18.2185 163.925C18.4773 162.968 18.7483 162.243 19.0315 161.75C19.3098 161.256 19.6443 160.885 20.0349 160.636C20.4255 160.387 20.887 160.263 21.4192 160.263C22.259 160.263 22.9329 160.6 23.4407 161.273C23.9485 161.942 24.2024 162.826 24.2024 163.925C24.2024 164.677 24.0681 165.368 23.7996 165.998C23.531 166.623 23.155 167.099 22.6716 167.426C22.1882 167.748 21.634 167.909 21.009 167.909V167.008C21.761 167.008 22.3542 166.728 22.7888 166.166C23.2234 165.604 23.4407 164.857 23.4407 163.925C23.4407 163.095 23.2576 162.428 22.8914 161.925C22.5251 161.422 22.0393 161.171 21.4338 161.171ZM14.1609 151.078V154.733H24.0559V155.634H14.1609V159.281H13.3918V151.078H14.1609ZM13.3918 148.156L22.8035 144.223L13.3918 140.275V139.074H24.0559V139.975H19.4124L14.6516 139.901L24.0559 143.871V144.567L14.6882 148.522L19.3831 148.449H24.0559V149.35H13.3918V148.156ZM18.9436 130.482V135.47H23.2942V129.735H24.0559V136.371H13.3918V129.772H14.1609V135.47H18.1819V130.482H18.9436ZM24.0559 119.892V120.792L14.9299 126.923H24.0559V127.831H13.3918V126.923L22.5251 120.785H13.3918V119.892H24.0559ZM14.1609 110.165V113.82H24.0559V114.721H14.1609V118.368H13.3918V110.165H14.1609ZM21.4338 102.519C20.843 102.519 20.3767 102.726 20.0349 103.141C19.6882 103.556 19.3611 104.315 19.0535 105.419C18.741 106.522 18.4016 107.328 18.0354 107.836C17.5178 108.559 16.8391 108.92 15.9993 108.92C15.1838 108.92 14.5222 108.585 14.0144 107.917C13.5017 107.243 13.2454 106.383 13.2454 105.338C13.2454 104.63 13.3821 103.998 13.6555 103.441C13.929 102.88 14.3098 102.445 14.7981 102.138C15.2864 101.83 15.8308 101.676 16.4314 101.676V102.584C15.7039 102.584 15.1204 102.833 14.6809 103.332C14.2366 103.83 14.0144 104.499 14.0144 105.338C14.0144 106.154 14.1975 106.803 14.5637 107.287C14.925 107.77 15.3987 108.012 15.9846 108.012C16.5266 108.012 16.9685 107.794 17.3103 107.36C17.6521 106.925 17.9548 106.229 18.2185 105.272C18.4773 104.315 18.7483 103.59 19.0315 103.097C19.3098 102.604 19.6443 102.233 20.0349 101.984C20.4255 101.735 20.887 101.61 21.4192 101.61C22.259 101.61 22.9329 101.947 23.4407 102.621C23.9485 103.29 24.2024 104.174 24.2024 105.272C24.2024 106.024 24.0681 106.715 23.7996 107.345C23.531 107.97 23.155 108.446 22.6716 108.773C22.1882 109.096 21.634 109.257 21.009 109.257V108.356C21.761 108.356 22.3542 108.075 22.7888 107.514C23.2234 106.952 23.4407 106.205 23.4407 105.272C23.4407 104.442 23.2576 103.776 22.8914 103.273C22.5251 102.77 22.0393 102.519 21.4338 102.519ZM19.7493 96.3369C18.6848 96.3369 17.6521 96.2002 16.6511 95.9268C15.6453 95.6533 14.7273 95.2529 13.8972 94.7256C13.0623 94.1982 12.4641 93.6318 12.1028 93.0264L12.696 92.814C12.9255 93.1362 13.26 93.4561 13.6995 93.7734C14.1389 94.0908 14.6614 94.374 15.2668 94.623C15.8723 94.8721 16.5535 95.0747 17.3103 95.231C18.0623 95.3823 18.9167 95.458 19.8738 95.458C20.8943 95.458 21.8757 95.3433 22.8181 95.1138C23.7605 94.8794 24.5906 94.5596 25.3083 94.1543C26.031 93.749 26.573 93.3022 26.9343 92.814L27.4983 93.0264C27.1272 93.6465 26.5266 94.2202 25.6965 94.7476C24.8713 95.2749 23.9631 95.6729 22.9719 95.9414C21.9758 96.2051 20.9016 96.3369 19.7493 96.3369ZM21.4265 85.9731C20.8845 85.9731 20.4426 86.1489 20.1008 86.5005C19.7542 86.8521 19.427 87.4722 19.1194 88.3608C18.7727 89.4644 18.3625 90.2383 17.8889 90.6826C17.4104 91.127 16.7927 91.3491 16.0359 91.3491C15.24 91.3491 14.5955 91.105 14.1023 90.6167C13.6042 90.1284 13.321 89.4644 13.2527 88.6245H11.7732V87.8774H13.2527C13.3308 87.0181 13.6531 86.354 14.2195 85.8853C14.7859 85.4116 15.5549 85.1748 16.5266 85.1748V86.0464C15.76 86.0464 15.1521 86.2466 14.7029 86.647C14.2488 87.0425 14.0217 87.5845 14.0217 88.2729C14.0217 88.9663 14.2048 89.5083 14.571 89.8989C14.9324 90.2847 15.4158 90.4775 16.0212 90.4775C16.6072 90.4775 17.0662 90.2993 17.3982 89.9429C17.7253 89.5864 18.0354 88.981 18.3284 88.1265C18.6165 87.2671 18.8948 86.6445 19.1633 86.2588C19.427 85.8682 19.7419 85.5776 20.1082 85.3872C20.4695 85.1919 20.9041 85.0942 21.4119 85.0942C22.2126 85.0942 22.8596 85.3457 23.3528 85.8486C23.8411 86.3467 24.1194 87.0327 24.1877 87.9067H25.5793V88.6465H24.1951C24.1316 89.6279 23.824 90.3872 23.2722 90.9243C22.7156 91.4614 21.9563 91.73 20.9944 91.73V90.8511C21.7561 90.8511 22.3542 90.6289 22.7888 90.1846C23.2185 89.7402 23.4333 89.1201 23.4333 88.3242C23.4333 87.6309 23.2478 87.0669 22.8767 86.6323C22.5056 86.1929 22.0222 85.9731 21.4265 85.9731ZM19.8591 80.4873C20.9333 80.4873 21.9685 80.6216 22.9646 80.8901C23.9558 81.1538 24.864 81.5469 25.6892 82.0693C26.5144 82.5918 27.1174 83.168 27.4983 83.7979L26.9343 84.0103C26.5925 83.5317 26.0627 83.0898 25.345 82.6846C24.6272 82.2744 23.7922 81.9521 22.8401 81.7178C21.8831 81.4834 20.8455 81.3662 19.7273 81.3662C18.7166 81.3662 17.7424 81.4834 16.8049 81.7178C15.8625 81.9521 15.0227 82.2769 14.2854 82.6919C13.5432 83.1021 13.0037 83.5415 12.6667 84.0103L12.1028 83.7979C12.4788 83.1826 13.0793 82.6138 13.9045 82.0913C14.7297 81.5688 15.6453 81.1709 16.6511 80.8975C17.657 80.624 18.7263 80.4873 19.8591 80.4873Z" fill="black"/>
<rect x="35.233" y="252.257" width="29" height="20.9019" fill="#848484"/>
<path d="M140.572 268.247H139.21V259.217L136.478 260.22V258.99L140.36 257.532H140.572V268.247ZM146.71 257.583L150.196 266.285L153.683 257.583H155.506V268.247H154.1V264.095L154.232 259.612L150.731 268.247H149.654L146.161 259.634L146.3 264.095V268.247H144.894V257.583H146.71Z" fill="black"/>
<path d="M187.089 262.256H188.107C188.747 262.247 189.25 262.078 189.616 261.751C189.982 261.424 190.166 260.982 190.166 260.425C190.166 259.175 189.543 258.55 188.298 258.55C187.712 258.55 187.243 258.719 186.892 259.056C186.545 259.388 186.372 259.83 186.372 260.381H185.017C185.017 259.537 185.324 258.836 185.939 258.279C186.56 257.718 187.346 257.437 188.298 257.437C189.304 257.437 190.092 257.703 190.664 258.235C191.235 258.768 191.521 259.507 191.521 260.455C191.521 260.918 191.369 261.368 191.066 261.802C190.769 262.237 190.361 262.561 189.843 262.776C190.429 262.962 190.881 263.269 191.198 263.699C191.521 264.129 191.682 264.654 191.682 265.274C191.682 266.231 191.369 266.99 190.744 267.552C190.119 268.113 189.306 268.394 188.305 268.394C187.304 268.394 186.489 268.123 185.859 267.581C185.234 267.039 184.921 266.324 184.921 265.435H186.284C186.284 265.997 186.467 266.446 186.833 266.783C187.199 267.12 187.69 267.288 188.305 267.288C188.96 267.288 189.46 267.117 189.807 266.775C190.153 266.434 190.327 265.943 190.327 265.303C190.327 264.683 190.136 264.207 189.755 263.875C189.375 263.543 188.825 263.372 188.107 263.362H187.089V262.256ZM195.71 257.583L199.196 266.285L202.683 257.583H204.506V268.247H203.1V264.095L203.232 259.612L199.731 268.247H198.654L195.161 259.634L195.3 264.095V268.247H193.894V257.583H195.71Z" fill="black"/>
<path d="M91.5723 268.247H90.21V259.217L87.4781 260.22V258.99L91.3599 257.532H91.5723V268.247ZM98.1934 264.886L98.3985 266.292L98.6988 265.025L100.808 257.583H101.995L104.053 265.025L104.346 266.314L104.573 264.878L106.228 257.583H107.642L105.056 268.247H103.774L101.577 260.477L101.409 259.664L101.24 260.477L98.9625 268.247H97.6807L95.1026 257.583H96.5089L98.1934 264.886Z" fill="black"/>
<path d="M275.565 262.463L276.107 257.145H281.57V258.398H277.256L276.934 261.305C277.457 260.998 278.05 260.844 278.714 260.844C279.686 260.844 280.457 261.166 281.028 261.811C281.6 262.45 281.885 263.317 281.885 264.411C281.885 265.509 281.587 266.376 280.992 267.011C280.401 267.641 279.573 267.956 278.509 267.956C277.566 267.956 276.797 267.694 276.202 267.172C275.606 266.65 275.267 265.927 275.184 265.004H276.465C276.548 265.614 276.766 266.076 277.117 266.388C277.469 266.696 277.933 266.85 278.509 266.85C279.139 266.85 279.632 266.635 279.988 266.205C280.35 265.776 280.53 265.182 280.53 264.425C280.53 263.713 280.335 263.141 279.944 262.712C279.559 262.277 279.044 262.06 278.399 262.06C277.808 262.06 277.344 262.189 277.007 262.448L276.649 262.741L275.565 262.463ZM286.968 262.499L289.752 257.145H291.348L287.671 263.832V267.809H286.265V263.832L282.588 257.145H284.2L286.968 262.499Z" fill="black"/>
<path d="M238.572 268.247H237.21V259.217L234.478 260.22V258.99L238.36 257.532H238.572V268.247ZM246.146 262.937L248.929 257.583H250.525L246.849 264.27V268.247H245.442V264.27L241.766 257.583H243.377L246.146 262.937Z" fill="black"/>
<path fill-rule="evenodd" clip-rule="evenodd" d="M118.189 168.649H122.177V167.649H118.189V168.649ZM39.2213 168.649H35.233V167.649H39.2213V168.649ZM41.6143 168.649H45.6025V167.649H41.6143V168.649ZM51.9838 168.649H47.9955V167.649H51.9838V168.649ZM67.1392 168.649H71.1274V167.649H67.1392V168.649ZM58.365 168.649H54.3767V167.649H58.365V168.649ZM60.7579 168.649H64.7462V167.649H60.7579V168.649ZM77.5087 168.649H73.5204V167.649H77.5087V168.649ZM79.9016 168.649H83.8899V167.649H79.9016V168.649ZM90.2711 168.649H86.2828V167.649H90.2711V168.649ZM92.6642 168.649H96.6525V167.649H92.6642V168.649ZM115.796 168.649H111.808V167.649H115.796V168.649ZM99.0453 168.649H103.034V167.649H99.0453V168.649ZM109.415 168.649H105.427V167.649H109.415V168.649ZM124.57 168.649H128.558V167.649H124.57V168.649ZM134.94 168.649H130.952V167.649H134.94V168.649ZM137.333 168.649H141.321V167.649H137.333V168.649ZM147.702 168.649H143.714V167.649H147.702V168.649ZM150.095 168.649H154.083V167.649H150.095V168.649ZM160.465 168.649H156.476V167.649H160.465V168.649ZM162.858 168.649H166.846V167.649H162.858V168.649ZM173.227 168.649H169.239V167.649H173.227V168.649ZM175.62 168.649H179.608V167.649H175.62V168.649ZM211.515 168.649H207.526V167.649H211.515V168.649ZM182.001 168.649H185.99V167.649H182.001V168.649ZM205.133 168.649H201.145V167.649H205.133V168.649ZM188.383 168.649H192.371V167.649H188.383V168.649ZM198.752 168.649H194.764V167.649H198.752V168.649ZM213.907 168.649H217.896V167.649H213.907V168.649ZM224.277 168.649H220.289V167.649H224.277V168.649ZM226.67 168.649H230.658V167.649H226.67V168.649ZM237.04 168.649H233.051V167.649H237.04V168.649ZM239.432 168.649H243.421V167.649H239.432V168.649ZM249.802 168.649H245.814V167.649H249.802V168.649ZM252.195 168.649H256.183V167.649H252.195V168.649ZM262.564 168.649H258.576V167.649H262.564V168.649ZM264.957 168.649H268.946V167.649H264.957V168.649ZM300.852 168.649H296.863V167.649H300.852V168.649ZM271.339 168.649H275.327V167.649H271.339V168.649ZM294.471 168.649H290.482V167.649H294.471V168.649ZM277.72 168.649H281.708V167.649H277.72V168.649ZM288.089 168.649H284.101V167.649H288.089V168.649ZM303.245 168.649H307.233V167.649H303.245V168.649Z" fill="#414141"/>
<path d="M45.5724 268.247H44.2101V259.217L41.4781 260.22V258.99L45.36 257.532H45.5724V268.247ZM49.8937 268.247V257.583H52.9039C53.8317 257.583 54.652 257.789 55.3649 258.199C56.0778 258.609 56.6271 259.192 57.0128 259.949C57.4034 260.706 57.6012 261.575 57.6061 262.557V263.238C57.6061 264.244 57.4108 265.125 57.0201 265.882C56.6344 266.639 56.0802 267.22 55.3575 267.625C54.6398 268.03 53.8024 268.238 52.8453 268.247H49.8937ZM51.2999 258.741V267.098H52.7794C53.8634 267.098 54.7057 266.761 55.3063 266.087C55.9117 265.413 56.2145 264.454 56.2145 263.208V262.586C56.2145 261.375 55.9288 260.435 55.3575 259.766C54.7911 259.092 53.9855 258.75 52.9406 258.741H51.2999Z" fill="black"/>
<path d="M126.772 52.8937C126.772 51.9952 126.455 51.2384 125.82 50.6232C125.195 50.0079 124.135 49.4513 122.641 48.9532C120.561 48.3185 119.043 47.4933 118.086 46.4777C117.138 45.4523 116.665 44.1534 116.665 42.5812C116.665 40.9796 117.128 39.6661 118.056 38.6407C118.994 37.6154 120.278 37.005 121.909 36.8097V33.6017H124.091V36.8243C125.732 37.049 127.006 37.7374 127.915 38.8898C128.833 40.0421 129.292 41.6193 129.292 43.6212H126.596C126.596 42.2443 126.269 41.1505 125.615 40.34C124.961 39.5294 124.077 39.1241 122.963 39.1241C121.801 39.1241 120.913 39.4269 120.297 40.0323C119.682 40.6281 119.375 41.463 119.375 42.5372C119.375 43.5333 119.697 44.3292 120.341 44.9249C120.996 45.5109 122.065 46.048 123.549 46.5363C125.044 47.0148 126.206 47.547 127.036 48.1329C127.876 48.7091 128.491 49.3829 128.881 50.1544C129.282 50.9259 129.482 51.8292 129.482 52.8644C129.482 54.5148 128.984 55.8429 127.988 56.8488C127.002 57.8546 125.615 58.4503 123.828 58.6359V61.4337H121.66V58.6359C119.843 58.4698 118.418 57.8253 117.382 56.7023C116.357 55.5695 115.844 54.0363 115.844 52.1027H118.554C118.554 53.4601 118.911 54.505 119.624 55.2374C120.336 55.9698 121.347 56.3361 122.656 56.3361C123.935 56.3361 124.941 56.0284 125.673 55.4132C126.406 54.798 126.772 53.9581 126.772 52.8937ZM151.66 22.5714V25.1349H151.318C147.07 25.1349 143.725 26.3881 141.284 28.8947C138.842 31.3849 137.491 34.8517 137.231 39.295C138.208 37.9441 139.453 36.9025 140.966 36.17C142.48 35.4213 144.173 35.047 146.044 35.047C149.169 35.047 151.652 36.1294 153.491 38.2941C155.346 40.4425 156.274 43.2583 156.274 46.7413C156.274 49.0525 155.843 51.1359 154.98 52.9913C154.117 54.8468 152.88 56.2954 151.269 57.337C149.658 58.3624 147.819 58.8751 145.752 58.8751C142.35 58.8751 139.583 57.6463 137.451 55.1886C135.319 52.7146 134.253 49.5245 134.253 45.6183V42.6886C134.253 36.3247 135.701 31.4012 138.598 27.9181C141.495 24.4187 145.605 22.6365 150.927 22.5714H151.66ZM145.581 37.5616C143.725 37.5616 141.992 38.115 140.38 39.2218C138.785 40.3123 137.719 41.7039 137.182 43.3966V45.8868C137.182 48.9793 137.972 51.5021 139.55 53.4552C141.145 55.4083 143.212 56.3849 145.752 56.3849C148.03 56.3849 149.869 55.4816 151.269 53.6749C152.685 51.8683 153.393 49.5896 153.393 46.839C153.393 44.0395 152.685 41.7934 151.269 40.1007C149.869 38.408 147.973 37.5616 145.581 37.5616ZM183.593 43.5675C183.593 48.5805 182.674 52.3891 180.835 54.9933C178.995 57.5812 176.285 58.8751 172.705 58.8751C169.189 58.8751 166.495 57.6056 164.624 55.0665C162.752 52.5112 161.792 48.8003 161.743 43.9337V37.5616C161.743 32.5649 162.67 28.7807 164.526 26.2091C166.381 23.6375 169.091 22.3517 172.656 22.3517C176.171 22.3517 178.857 23.5968 180.712 26.087C182.568 28.561 183.528 32.215 183.593 37.049V43.5675ZM180.664 37.1954C180.664 33.1264 179.996 30.0503 178.662 27.9669C177.343 25.8836 175.341 24.8419 172.656 24.8419C170.019 24.8419 168.033 25.8592 166.699 27.8937C165.364 29.9282 164.681 32.9311 164.648 36.9025V43.8849C164.648 47.9376 165.332 51.0382 166.699 53.1866C168.082 55.3351 170.084 56.4093 172.705 56.4093C175.309 56.4093 177.278 55.3595 178.613 53.2599C179.964 51.1603 180.647 48.0841 180.664 44.0314V37.1954ZM188.657 56.9659C188.657 56.4972 188.794 56.1066 189.067 55.7941C189.35 55.4816 189.77 55.3253 190.327 55.3253C190.883 55.3253 191.303 55.4816 191.586 55.7941C191.879 56.1066 192.026 56.4972 192.026 56.9659C192.026 57.4152 191.879 57.7911 191.586 58.0939C191.303 58.3966 190.883 58.548 190.327 58.548C189.77 58.548 189.35 58.3966 189.067 58.0939C188.794 57.7911 188.657 57.4152 188.657 56.9659ZM206.616 49.0118C206.049 49.6857 205.371 50.2277 204.58 50.6378C203.798 51.048 202.939 51.2531 202.002 51.2531C200.771 51.2531 199.697 50.9503 198.779 50.3448C197.871 49.7394 197.168 48.8898 196.669 47.796C196.171 46.6925 195.922 45.4767 195.922 44.1486C195.922 42.7228 196.191 41.4386 196.728 40.296C197.275 39.1534 198.046 38.2794 199.043 37.674C200.039 37.0685 201.201 36.7657 202.529 36.7657C204.638 36.7657 206.298 37.5568 207.509 39.1388C208.73 40.7111 209.34 42.8595 209.34 45.5841V46.3751C209.34 50.5255 208.52 53.5577 206.879 55.4718C205.239 57.3761 202.763 58.3527 199.453 58.4015H198.925V56.1163H199.497C201.733 56.0773 203.452 55.4962 204.653 54.3732C205.854 53.2404 206.508 51.4532 206.616 49.0118ZM202.441 49.0118C203.349 49.0118 204.184 48.7335 204.946 48.1769C205.717 47.6202 206.279 46.9318 206.63 46.1115V45.0275C206.63 43.2501 206.245 41.8048 205.473 40.6915C204.702 39.5782 203.725 39.0216 202.544 39.0216C201.352 39.0216 200.395 39.4806 199.672 40.3986C198.95 41.3068 198.588 42.5079 198.588 44.0021C198.588 45.4572 198.935 46.6583 199.628 47.6056C200.332 48.5431 201.269 49.0118 202.441 49.0118ZM223.711 37.0441V39.3439H223.212C221.103 39.3829 219.423 40.0079 218.173 41.2189C216.923 42.4298 216.201 44.1339 216.005 46.3312C217.128 45.0421 218.662 44.3976 220.605 44.3976C222.461 44.3976 223.94 45.0519 225.044 46.3605C226.157 47.6691 226.713 49.3585 226.713 51.4288C226.713 53.6261 226.113 55.3839 224.912 56.7023C223.72 58.0206 222.119 58.6798 220.107 58.6798C218.066 58.6798 216.411 57.8986 215.141 56.3361C213.872 54.7638 213.237 52.7423 213.237 50.2716V49.2316C213.237 45.3058 214.072 42.3077 215.742 40.2374C217.421 38.1573 219.917 37.0929 223.227 37.0441H223.711ZM220.151 46.6534C219.223 46.6534 218.369 46.9318 217.587 47.4884C216.806 48.045 216.264 48.7433 215.961 49.5831V50.5792C215.961 52.337 216.357 53.7531 217.148 54.8273C217.939 55.9015 218.925 56.4386 220.107 56.4386C221.328 56.4386 222.285 55.9894 222.978 55.0909C223.681 54.1925 224.033 53.0157 224.033 51.5607C224.033 50.0958 223.676 48.9142 222.963 48.0157C222.26 47.1075 221.323 46.6534 220.151 46.6534Z" fill="black"/>
<path d="M106.847 78.6915H110.092V79.5118H106.847V83.0421H105.961V79.5118H102.782V78.6915H105.961V75.2784H106.847V78.6915ZM118.383 84.1114H111.703V83.4376L115.358 79.2921C115.963 78.5938 116.383 78.0176 116.618 77.5635C116.852 77.1094 116.969 76.6675 116.969 76.2379C116.969 75.564 116.772 75.0318 116.376 74.6412C115.981 74.2457 115.436 74.0479 114.743 74.0479C114.025 74.0479 113.444 74.2774 113 74.7364C112.56 75.1954 112.34 75.7911 112.34 76.5235H111.469C111.469 75.9229 111.603 75.376 111.872 74.8829C112.145 74.3897 112.531 74.004 113.029 73.7256C113.532 73.4424 114.103 73.3008 114.743 73.3008C115.719 73.3008 116.481 73.5572 117.028 74.0699C117.58 74.5826 117.856 75.2808 117.856 76.1646C117.856 76.6627 117.699 77.2071 117.387 77.7979C117.079 78.3887 116.535 79.126 115.753 80.0098L112.78 83.3716H118.383V84.1114ZM120.082 83.584C120.082 83.4131 120.136 83.2691 120.243 83.1519C120.356 83.0298 120.509 82.9688 120.705 82.9688C120.9 82.9688 121.054 83.0298 121.166 83.1519C121.278 83.2691 121.335 83.4131 121.335 83.584C121.335 83.7549 121.278 83.8965 121.166 84.0089C121.054 84.1163 120.9 84.17 120.705 84.17C120.509 84.17 120.356 84.1163 120.243 84.0089C120.136 83.8965 120.082 83.7549 120.082 83.584ZM130.043 79.6656C130.043 81.1695 129.767 82.3121 129.215 83.0933C128.664 83.8697 127.851 84.2579 126.776 84.2579C125.722 84.2579 124.914 83.877 124.352 83.1153C123.791 82.3487 123.503 81.2354 123.488 79.7755V77.8638C123.488 76.3648 123.766 75.2296 124.323 74.4581C124.879 73.6866 125.692 73.3008 126.762 73.3008C127.816 73.3008 128.622 73.6744 129.179 74.4214C129.735 75.1636 130.023 76.2598 130.043 77.71V79.6656ZM129.164 77.754C129.164 76.5333 128.964 75.6104 128.564 74.9854C128.168 74.3604 127.567 74.0479 126.762 74.0479C125.971 74.0479 125.375 74.3531 124.975 74.9634C124.574 75.5738 124.369 76.4747 124.359 77.6661V79.7608C124.359 80.9766 124.565 81.9068 124.975 82.5513C125.39 83.1959 125.99 83.5181 126.776 83.5181C127.558 83.5181 128.148 83.2032 128.549 82.5733C128.954 81.9434 129.159 81.0206 129.164 79.8047V77.754ZM138.217 76.1939C138.217 76.7457 138.056 77.2413 137.733 77.6807C137.411 78.1153 136.986 78.4351 136.459 78.6402C137.074 78.8502 137.567 79.1895 137.939 79.6583C138.31 80.127 138.495 80.669 138.495 81.2842C138.495 82.1973 138.185 82.9224 137.565 83.4595C136.945 83.9918 136.125 84.2579 135.104 84.2579C134.074 84.2579 133.249 83.9918 132.628 83.4595C132.013 82.9273 131.706 82.2022 131.706 81.2842C131.706 80.6788 131.884 80.1392 132.24 79.6656C132.597 79.192 133.085 78.8502 133.705 78.6402C133.178 78.4351 132.758 78.1153 132.445 77.6807C132.133 77.2413 131.977 76.7457 131.977 76.1939C131.977 75.3101 132.26 74.607 132.826 74.0845C133.398 73.5621 134.152 73.3008 135.089 73.3008C136.027 73.3008 136.781 73.5645 137.353 74.0919C137.929 74.6192 138.217 75.3199 138.217 76.1939ZM137.616 81.2916C137.616 80.6275 137.379 80.0831 136.906 79.6583C136.432 79.2286 135.827 79.0137 135.089 79.0137C134.352 79.0137 133.749 79.2237 133.28 79.6436C132.812 80.0635 132.577 80.6129 132.577 81.2916C132.577 81.9703 132.804 82.5123 133.258 82.9175C133.712 83.3179 134.328 83.5181 135.104 83.5181C135.861 83.5181 136.469 83.3179 136.928 82.9175C137.387 82.5172 137.616 81.9752 137.616 81.2916ZM137.338 76.1866C137.338 75.5762 137.126 75.0684 136.701 74.6631C136.281 74.253 135.744 74.0479 135.089 74.0479C134.425 74.0479 133.886 74.2457 133.471 74.6412C133.061 75.0318 132.856 75.5469 132.856 76.1866C132.856 76.8116 133.061 77.3145 133.471 77.6954C133.886 78.0762 134.428 78.2667 135.097 78.2667C135.756 78.2667 136.293 78.0762 136.708 77.6954C137.128 77.3096 137.338 76.8067 137.338 76.1866ZM143.922 79.8047C143.922 78.7403 144.059 77.7076 144.333 76.7066C144.606 75.7007 145.006 74.7828 145.534 73.9527C146.061 73.1177 146.628 72.5196 147.233 72.1583L147.445 72.7515C147.123 72.981 146.803 73.3155 146.486 73.7549C146.169 74.1944 145.885 74.7169 145.636 75.3223C145.387 75.9278 145.185 76.6089 145.028 77.3658C144.877 78.1177 144.801 78.9722 144.801 79.9293C144.801 80.9498 144.916 81.9312 145.146 82.8736C145.38 83.816 145.7 84.6461 146.105 85.3638C146.51 86.0865 146.957 86.6285 147.445 86.9898L147.233 87.5538C146.613 87.1827 146.039 86.5821 145.512 85.752C144.984 84.9268 144.586 84.0186 144.318 83.0274C144.054 82.0313 143.922 80.9571 143.922 79.8047ZM150.639 78.3033H151.547C152.05 78.3033 152.489 78.2154 152.865 78.0396C153.241 77.8589 153.527 77.6148 153.722 77.3072C153.922 76.9947 154.023 76.6358 154.023 76.2305C154.023 75.5469 153.83 75.0123 153.444 74.6265C153.058 74.2408 152.504 74.0479 151.781 74.0479C151.098 74.0479 150.536 74.2505 150.097 74.6558C149.662 75.0562 149.445 75.586 149.445 76.2452H148.566C148.566 75.6934 148.705 75.1905 148.983 74.7364C149.262 74.2774 149.648 73.9234 150.141 73.6744C150.634 73.4254 151.181 73.3008 151.781 73.3008C152.748 73.3008 153.51 73.5645 154.066 74.0919C154.623 74.6192 154.901 75.3419 154.901 76.2598C154.901 76.7725 154.738 77.2462 154.411 77.6807C154.088 78.1104 153.644 78.4327 153.078 78.6475C153.742 78.8331 154.245 79.1529 154.586 79.607C154.928 80.0562 155.099 80.5933 155.099 81.2183C155.099 82.1314 154.801 82.8663 154.206 83.4229C153.61 83.9796 152.814 84.2579 151.818 84.2579C151.183 84.2579 150.6 84.1309 150.067 83.877C149.54 83.6231 149.13 83.2691 148.837 82.815C148.549 82.356 148.405 81.8238 148.405 81.2183H149.284C149.284 81.897 149.521 82.4512 149.994 82.8809C150.468 83.3057 151.076 83.5181 151.818 83.5181C152.575 83.5181 153.163 83.3253 153.583 82.9395C154.008 82.5489 154.22 81.9849 154.22 81.2476C154.22 80.5347 153.991 79.9903 153.532 79.6143C153.078 79.2383 152.406 79.0504 151.518 79.0504H150.639V78.3033ZM157.069 83.584C157.069 83.4131 157.123 83.2691 157.231 83.1519C157.343 83.0298 157.497 82.9688 157.692 82.9688C157.887 82.9688 158.041 83.0298 158.153 83.1519C158.266 83.2691 158.322 83.4131 158.322 83.584C158.322 83.7549 158.266 83.8965 158.153 84.0089C158.041 84.1163 157.887 84.17 157.692 84.17C157.497 84.17 157.343 84.1163 157.231 84.0089C157.123 83.8965 157.069 83.7549 157.069 83.584ZM161.193 78.6475L161.713 73.4473H167.045V74.2603H162.467L162.094 77.8638C162.665 77.4732 163.334 77.2779 164.101 77.2779C165.063 77.2779 165.829 77.5904 166.4 78.2154C166.972 78.8404 167.257 79.6729 167.257 80.713C167.257 81.836 166.979 82.7076 166.422 83.3277C165.866 83.9478 165.082 84.2579 164.071 84.2579C163.144 84.2579 162.392 83.9991 161.815 83.4815C161.239 82.9639 160.91 82.2388 160.827 81.3062H161.669C161.752 82.0338 161.999 82.5855 162.409 82.9615C162.819 83.3326 163.373 83.5181 164.071 83.5181C164.833 83.5181 165.407 83.2764 165.793 82.793C166.183 82.3096 166.378 81.6212 166.378 80.7276C166.378 79.9464 166.161 79.3091 165.727 78.816C165.292 78.3228 164.699 78.0762 163.947 78.0762C163.532 78.0762 163.17 78.1299 162.863 78.2374C162.555 78.3399 162.231 78.5425 161.889 78.8453L161.193 78.6475ZM170.868 78.3033H171.776C172.279 78.3033 172.719 78.2154 173.095 78.0396C173.471 77.8589 173.756 77.6148 173.952 77.3072C174.152 76.9947 174.252 76.6358 174.252 76.2305C174.252 75.5469 174.059 75.0123 173.673 74.6265C173.288 74.2408 172.733 74.0479 172.011 74.0479C171.327 74.0479 170.766 74.2505 170.326 74.6558C169.892 75.0562 169.674 75.586 169.674 76.2452H168.795C168.795 75.6934 168.935 75.1905 169.213 74.7364C169.491 74.2774 169.877 73.9234 170.37 73.6744C170.863 73.4254 171.41 73.3008 172.011 73.3008C172.978 73.3008 173.739 73.5645 174.296 74.0919C174.853 74.6192 175.131 75.3419 175.131 76.2598C175.131 76.7725 174.967 77.2462 174.64 77.6807C174.318 78.1104 173.874 78.4327 173.307 78.6475C173.971 78.8331 174.474 79.1529 174.816 79.607C175.158 80.0562 175.329 80.5933 175.329 81.2183C175.329 82.1314 175.031 82.8663 174.435 83.4229C173.839 83.9796 173.044 84.2579 172.047 84.2579C171.413 84.2579 170.829 84.1309 170.297 83.877C169.77 83.6231 169.359 83.2691 169.066 82.815C168.778 82.356 168.634 81.8238 168.634 81.2183H169.513C169.513 81.897 169.75 82.4512 170.224 82.8809C170.697 83.3057 171.305 83.5181 172.047 83.5181C172.804 83.5181 173.393 83.3253 173.813 82.9395C174.237 82.5489 174.45 81.9849 174.45 81.2476C174.45 80.5347 174.22 79.9903 173.761 79.6143C173.307 79.2383 172.636 79.0504 171.747 79.0504H170.868V78.3033ZM177.035 75.4981C177.035 74.8633 177.231 74.3384 177.621 73.9234C178.017 73.5035 178.517 73.2935 179.123 73.2935C179.728 73.2935 180.226 73.5035 180.617 73.9234C181.012 74.3384 181.21 74.878 181.21 75.5421V76.0621C181.21 76.6871 181.015 77.2095 180.624 77.6295C180.238 78.0445 179.743 78.252 179.137 78.252C178.537 78.252 178.036 78.0469 177.636 77.6368C177.235 77.2266 177.035 76.6846 177.035 76.0108V75.4981ZM177.746 76.0621C177.746 76.5162 177.87 76.8897 178.119 77.1827C178.373 77.4756 178.712 77.6221 179.137 77.6221C179.552 77.6221 179.882 77.4756 180.126 77.1827C180.375 76.8848 180.5 76.5015 180.5 76.0328V75.4981C180.5 75.044 180.373 74.6705 180.119 74.3775C179.865 74.0797 179.533 73.9307 179.123 73.9307C178.717 73.9307 178.385 74.0772 178.127 74.3702C177.873 74.6631 177.746 75.0538 177.746 75.5421V76.0621ZM182.404 81.4966C182.404 80.8619 182.599 80.337 182.99 79.9219C183.385 79.5069 183.883 79.2994 184.484 79.2994C185.085 79.2994 185.583 79.5069 185.978 79.9219C186.378 80.3321 186.579 80.8741 186.579 81.5479V82.0679C186.579 82.7027 186.381 83.2276 185.985 83.6426C185.595 84.0577 185.099 84.2652 184.499 84.2652C183.898 84.2652 183.398 84.0601 182.997 83.65C182.602 83.2349 182.404 82.6954 182.404 82.0313V81.4966ZM183.107 82.0679C183.107 82.5269 183.232 82.9029 183.481 83.1959C183.734 83.4888 184.074 83.6353 184.499 83.6353C184.919 83.6353 185.251 83.4888 185.495 83.1959C185.744 82.898 185.868 82.5098 185.868 82.0313V81.4966C185.868 81.0279 185.741 80.6519 185.487 80.3687C185.238 80.0806 184.904 79.9366 184.484 79.9366C184.074 79.9366 183.742 80.0806 183.488 80.3687C183.234 80.6568 183.107 81.0425 183.107 81.5259V82.0679ZM179.416 83.2252L178.866 82.8736L184.074 74.5386L184.623 74.8902L179.416 83.2252ZM191.09 79.9146C191.09 80.9888 190.956 82.024 190.688 83.0201C190.424 84.0113 190.031 84.9195 189.508 85.7447C188.986 86.5699 188.41 87.1729 187.78 87.5538L187.567 86.9898C188.046 86.648 188.488 86.1182 188.893 85.4005C189.303 84.6827 189.626 83.8477 189.86 82.8956C190.094 81.9385 190.211 80.9009 190.211 79.7828C190.211 78.772 190.094 77.7979 189.86 76.8604C189.626 75.918 189.301 75.0782 188.886 74.3409C188.476 73.5987 188.036 73.0591 187.567 72.7222L187.78 72.1583C188.395 72.5342 188.964 73.1348 189.486 73.96C190.009 74.7852 190.407 75.7007 190.68 76.7066C190.954 77.7125 191.09 78.7818 191.09 79.9146ZM204.157 74.2164H200.502V84.1114H199.601V74.2164H195.954V73.4473H204.157V74.2164ZM213.561 79.358C213.561 80.3394 213.39 81.2012 213.048 81.9434C212.711 82.6856 212.228 83.2569 211.598 83.6573C210.968 84.0577 210.241 84.2579 209.416 84.2579C208.17 84.2579 207.165 83.8135 206.398 82.9249C205.631 82.0313 205.248 80.8277 205.248 79.314V78.2154C205.248 77.2437 205.419 76.3843 205.761 75.6373C206.107 74.8853 206.596 74.3091 207.226 73.9088C207.856 73.5035 208.581 73.3008 209.401 73.3008C210.221 73.3008 210.944 73.4986 211.569 73.8941C212.199 74.2896 212.685 74.8487 213.026 75.5714C213.368 76.294 213.546 77.1314 213.561 78.0836V79.358ZM212.66 78.2007C212.66 76.9166 212.37 75.9107 211.789 75.1832C211.208 74.4556 210.412 74.0919 209.401 74.0919C208.41 74.0919 207.619 74.4581 207.028 75.1905C206.442 75.918 206.149 76.9361 206.149 78.2447V79.358C206.149 80.6226 206.442 81.626 207.028 82.3682C207.614 83.1055 208.41 83.4742 209.416 83.4742C210.436 83.4742 211.232 83.1104 211.803 82.3829C212.375 81.6505 212.66 80.6324 212.66 79.3287V78.2007ZM215.832 84.1114V73.4473H218.813C219.687 73.4473 220.47 73.6475 221.164 74.0479C221.857 74.4434 222.397 75.0123 222.782 75.7545C223.173 76.4966 223.368 77.3414 223.368 78.2886V79.2701C223.368 80.2222 223.175 81.067 222.79 81.8043C222.404 82.5416 221.859 83.1104 221.156 83.5108C220.458 83.9112 219.655 84.1114 218.747 84.1114H215.832ZM216.732 74.2164V83.3497H218.754C219.877 83.3497 220.778 82.9786 221.457 82.2364C222.135 81.4893 222.475 80.481 222.475 79.2115V78.274C222.475 77.0484 222.14 76.067 221.471 75.3297C220.802 74.5923 219.921 74.2213 218.827 74.2164H216.732ZM231.256 81.1231H226.415L225.316 84.1114H224.372L228.407 73.4473H229.264L233.3 84.1114H232.362L231.256 81.1231ZM226.693 80.3541H230.971L228.832 74.546L226.693 80.3541ZM237.314 79.2628L240.573 73.4473H241.613L237.76 80.0977V84.1114H236.859V80.0977L233.014 73.4473H234.084L237.314 79.2628Z" fill="black"/>
</svg>
